<svg id="Layer_1" data-name="Layer 1" xmlns="http://www.w3.org/2000/svg" width="40" height="40" viewBox="0 0 40 40">
  <defs>
    <style>
      .cls-1 {
        fill: #ffc013;
      }

      .cls-2 {
        fill: #f4a21d;
      }

      .cls-3 {
        fill: #fde100;
      }

      .cls-4 {
        fill: none;
      }

      .cls-5 {
        fill: #fff;
      }

      .cls-6 {
        fill: #cccbcb;
      }

      .cls-7 {
        fill: #e5e5e4;
      }
    </style>
  </defs>
  <title>WS-40x40_white-01</title>
  <g>
    <rect class="cls-1" x="7.27" y="16.16" width="25.47" height="4.32"/>
    <path class="cls-2" d="M20.2,1.2A12.73,12.73,0,0,0,7.46,13.93l.71,2.86L32.93,19.6V13.93A12.73,12.73,0,0,0,20.2,1.2"/>
    <path class="cls-3" d="M20,1.2A12.73,12.73,0,0,0,7.27,13.93v5.92L20,18.32Z"/>
    <path class="cls-2" d="M20,.68H19.8a12.4,12.4,0,0,0-4,.67v17h8.42V.68Z"/>
    <path class="cls-1" d="M20,18.08V.68H15.79V18.42Z"/>
    <path class="cls-1" d="M33.34,19.18a59.3,59.3,0,0,0-26.68,0,.7.7,0,1,0,0,1.39h.17a58.57,58.57,0,0,1,26.34,0h.17a.7.7,0,1,0,0-1.39"/>
    <polygon class="cls-2" points="17.37 12.96 20.49 16.09 22.01 13.68 22.01 12.96 17.37 12.96"/>
    <g>
      <g>
        <path class="cls-4" d="M25.44,25.41a4.71,4.71,0,0,0-.88-3.15h-9a4.91,4.91,0,0,0-.87,2.58A5.33,5.33,0,0,0,20,30.44h.26l0,0A5.39,5.39,0,0,0,25.44,25.41Z"/>
        <path class="cls-5" d="M20,30.44a5.33,5.33,0,0,1-5.35-5.6,4.91,4.91,0,0,1,.87-2.58h-9c-.33,0-.56.17-.56.5v4.77a.54.54,0,0,0,.56.57H8.92a.61.61,0,0,1,.57.43,11.59,11.59,0,0,0,.69,1.66.59.59,0,0,1-.11.7l-1.7,1.72a.61.61,0,0,0,0,.85l3.41,3.42a.61.61,0,0,0,.85,0l1.71-1.73A.63.63,0,0,1,15,35a10.05,10.05,0,0,0,1.54.66.58.58,0,0,1,.38.57v2.5a.62.62,0,0,0,.66.56H20l0-8.89Z"/>
        <path class="cls-6" d="M20,30.44a5.33,5.33,0,0,0,5.35-5.6,4.83,4.83,0,0,0-.87-2.58h9a.45.45,0,0,1,.51.5v4.77a.5.5,0,0,1-.51.57h-2.4a.6.6,0,0,0-.56.43,10.59,10.59,0,0,1-.7,1.66.61.61,0,0,0,.11.7l1.71,1.72a.61.61,0,0,1,0,.85l-3.42,3.42a.61.61,0,0,1-.85,0L25.7,35.15A.61.61,0,0,0,25,35a10.73,10.73,0,0,1-1.56.66.59.59,0,0,0-.41.57v2.5a.58.58,0,0,1-.61.56H20Z"/>
        <path class="cls-5" d="M20.3,30.46h0Z"/>
        <path class="cls-7" d="M25.81,35.16a.65.65,0,0,0-.43-.17.63.63,0,0,1,.42.17l1.71,1.73a.65.65,0,0,0,.43.17.63.63,0,0,1-.42-.17Z"/>
        <path class="cls-7" d="M25.44,25.41a5.4,5.4,0,0,1-5.11,5.08l0,0h.06a5.37,5.37,0,0,0,5.1-5.06,4.78,4.78,0,0,0-.86-3.15h0A4.71,4.71,0,0,1,25.44,25.41Z"/>
      </g>
      <g>
        <path class="cls-5" d="M24.84,25.26a4.8,4.8,0,0,1-4.8,4.8h0v2.14h0a6.92,6.92,0,0,0,6.25-9.93H23.78A4.52,4.52,0,0,1,24.84,25.26Z"/>
        <path class="cls-6" d="M15.12,25.26a4.82,4.82,0,0,0,4.82,4.8H20v2.14h-.06a6.94,6.94,0,0,1-6.27-9.93h2.51A4.52,4.52,0,0,0,15.12,25.26Z"/>
      </g>
    </g>
  </g>
</svg>
