<svg id="Layer_1" data-name="Layer 1" xmlns="http://www.w3.org/2000/svg" width="40" height="40" viewBox="0 0 40 40"><defs><style>.cls-1{fill:#fff;}.cls-2{fill:#ffce1c;}.cls-3{fill:#272e68;}</style></defs><title>logo-80x80</title><circle class="cls-1" cx="20" cy="20" r="19" transform="translate(-1.5 1.63) rotate(-4.49)"/><path class="cls-2" d="M28.56,18.2c-.06.26.68-6.56-4.59-9.1v7.74H22.81V7.5H17.2v9.34H16V9.1c-5.81,2.8-4.59,9.1-4.59,9.1H10.17V20H29.83V18.2Z"/><path class="cls-3" d="M29.83,25.29V21.63H24.2v1a4.2,4.2,0,0,1-8.4,0v-1H10.17v3.66h2.29l.73,1.64-1.54,1.36,2.83,3,1.61-1.63,1.75.75v2.13h4.32V30.42l1.75-.75,1.61,1.63,2.83-3-1.54-1.36.73-1.64Z"/><path class="cls-1" d="M24.2,21.76v-.13h0S24.2,21.71,24.2,21.76Z"/><path class="cls-1" d="M15.81,21.63h0v.13C15.8,21.71,15.81,21.67,15.81,21.63Z"/></svg>